<?xml version="1.0" encoding="utf-8"?>
<!-- Generator: Adobe Illustrator 20.1.0, SVG Export Plug-In . SVG Version: 6.00 Build 0)  -->
<svg version="1.1" xmlns="http://www.w3.org/2000/svg" xmlns:xlink="http://www.w3.org/1999/xlink" x="0px" y="0px" width="304.7px"
	 height="72.7px" viewBox="0 0 304.7 72.7" style="enable-background:new 0 0 304.7 72.7;" xml:space="preserve">
<style type="text/css">
	.st0{display:none;}
	.st1{display:inline;}
	.st2{fill:#E6E7E8;}
	.st3{display:none;fill:url(#SVGID_1_);}
	.st4{fill:url(#SVGID_2_);}
	.st5{fill:#5D5E5E;}
</style>
<g id="Layer_2">
</g>
<g id="Layer_1">
	<g id="Layer_3" class="st0">
		<g class="st1">
			<path class="st2" d="M119.3,39c-0.5,12.4-10.2,22-22.3,22c-12.8,0-22.3-10.4-22.3-22.8c0-12.6,10.3-23,22.8-23
				c5.7,0,11.2,2.4,15.9,6.8l-3.7,4.5c-3.6-3.1-7.9-5.2-12.2-5.2c-9.2,0-16.7,7.6-16.7,16.9c0,9.4,7.1,16.7,16.2,16.7
				c8.2,0,14.6-6,15.8-13.6H94.3v-5.4h25V39z"/>
			<path class="st2" d="M140.6,36.1h-3.4c-3.8,0-6.8,2.4-6.8,6.3v18.3h-6.1V30.2h5v2.6c1.6-1.6,4.3-2.6,7.2-2.6h6.6L140.6,36.1z"/>
			<path class="st2" d="M173.8,60.7h-5.2v-3.8c-2.7,2.6-6.4,4.3-10.5,4.3c-8.7,0-15.7-7.1-15.7-15.8c0-8.6,7-15.7,15.7-15.7
				c4.1,0,7.7,1.6,10.4,4.3v-3.8h5.2V60.7z M167.8,45.4c0-5.2-4.3-9.6-9.6-9.6c-5.3,0-9.6,4.3-9.6,9.6c0,5.4,4.3,9.6,9.6,9.6
				C163.5,55,167.8,50.7,167.8,45.4z"/>
			<path class="st2" d="M186,28.5v1.7h9.7v5.4H186v25.1h-6v-32c0-6.7,4.8-10.7,10.8-10.7h7.3l-2.4,5.7h-4.9
				C188.2,23.8,186,25.9,186,28.5z"/>
			<path class="st2" d="M228,60.7h-5.2v-3.8c-2.7,2.6-6.4,4.3-10.5,4.3c-8.7,0-15.7-7.1-15.7-15.8c0-8.6,7-15.7,15.7-15.7
				c4.1,0,7.7,1.6,10.4,4.3v-3.8h5.2V60.7z M222,45.4c0-5.2-4.3-9.6-9.6-9.6c-5.3,0-9.6,4.3-9.6,9.6c0,5.4,4.3,9.6,9.6,9.6
				C217.8,55,222,50.7,222,45.4z"/>
			<path class="st2" d="M260.5,42.6v18h-6.1v-18c0-3.8-3.1-6.8-6.8-6.8c-3.8,0-6.9,3-6.9,6.8v18h-6.1V30.2h5.1v2.6
				c2.2-1.9,5.1-3.1,8.2-3.1C254.9,29.7,260.5,35.5,260.5,42.6z"/>
			<path class="st2" d="M296.3,60.7h-5.2v-3.8c-2.7,2.6-6.4,4.3-10.5,4.3c-8.7,0-15.7-7.1-15.7-15.8c0-8.6,7-15.7,15.7-15.7
				c4.1,0,7.7,1.6,10.4,4.3v-3.8h5.2V60.7z M290.4,45.4c0-5.2-4.3-9.6-9.6-9.6c-5.3,0-9.6,4.3-9.6,9.6c0,5.4,4.3,9.6,9.6,9.6
				C286.1,55,290.4,50.7,290.4,45.4z"/>
		</g>
	</g>
	<linearGradient id="SVGID_1_" gradientUnits="userSpaceOnUse" x1="33.5211" y1="86.6644" x2="33.5211" y2="21.537">
		<stop  offset="0" style="stop-color:#FFF200"/>
		<stop  offset="1" style="stop-color:#F15A29"/>
	</linearGradient>
	<path class="st3" d="M44.8,47.6c-0.2-0.3-0.6-0.3-0.9-0.2c-0.1,0-0.2,0.1-0.2,0.1c-0.3,0.1-0.5,0.2-0.8,0.3
		c-0.3,0.1-0.6,0.2-0.9,0.2c-0.2,0-0.3,0-0.5,0.1c-0.1,0-0.2,0-0.2,0c-0.1,0-0.2,0-0.2,0c-0.1,0-0.2,0-0.2,0c-0.1,0-0.2,0-0.3,0
		c0,0-0.1,0,0,0l0,0l-0.1,0c0,0-0.1,0-0.1,0c-0.1,0-0.2,0-0.3,0c-0.7-0.1-1.4-0.3-2.1-0.6c-0.7-0.3-1.4-0.8-2-1.3
		c-0.6-0.5-1.1-1.2-1.5-1.9c-0.4-0.7-0.7-1.6-0.8-2.4c-0.1-0.4-0.1-0.9-0.1-1.3c0-0.1,0-0.2,0-0.4c0,0,0,0,0,0l0,0l0-0.1
		c0-0.1,0-0.1,0-0.2c0-0.2,0.1-0.5,0.1-0.7c0.3-1.9,1.3-3.7,2.7-5.1c0.4-0.3,0.8-0.7,1.2-1c0.4-0.3,0.9-0.5,1.3-0.8
		c0.5-0.2,0.9-0.4,1.4-0.5c0.5-0.1,1-0.2,1.5-0.3c0.3,0,0.5,0,0.8,0c0.1,0,0.1,0,0.2,0l0.2,0l0.1,0c0.1,0,0,0,0,0l0.1,0l0.2,0
		c0.6,0,1.1,0.1,1.7,0.2C46,32.1,47,32.5,48,33c2,1.1,3.7,2.8,4.7,4.9c0.5,1,0.9,2.1,1.1,3.3c0,0.3,0.1,0.6,0.1,0.9l0,0.2l0,0.2
		c0,0.1,0,0.1,0,0.2c0,0.1,0,0.2,0,0.2l0,0.2l0,0.2c0,0.1,0,0.4,0,0.5c0,0.3,0,0.6-0.1,1c0,0.3-0.1,0.6-0.1,0.9
		c-0.1,0.3-0.1,0.6-0.2,0.9c-0.2,0.6-0.4,1.2-0.6,1.8c-0.5,1.2-1.1,2.3-1.8,3.3c-1.5,2.1-3.6,3.7-5.9,4.8c-1.2,0.5-2.4,0.9-3.7,1.1
		c-0.6,0.1-1.3,0.2-1.9,0.2l-0.1,0l-0.1,0l-0.2,0l-0.3,0l-0.2,0c0.1,0,0,0,0,0l-0.1,0c-0.3,0-0.7,0-1-0.1c-1.4-0.1-2.7-0.3-4-0.7
		c-1.3-0.4-2.6-0.9-3.8-1.5c-2.4-1.3-4.6-3-6.2-5.2c-0.8-1.1-1.6-2.2-2.2-3.4c-0.6-1.2-1.1-2.5-1.4-3.7c-0.4-1.3-0.6-2.6-0.7-3.9
		l0-0.2l0-0.1l0-0.1l0-0.1l0-0.2l0-0.1l0-0.1l0-0.2l0-0.3l0-0.1c0,0,0,0,0,0l0-0.1c0-0.2,0-0.3,0-0.5c0-0.7,0.1-1.3,0.2-2
		c0.1-0.7,0.2-1.3,0.3-2c0.1-0.7,0.3-1.3,0.5-2c0.4-1.3,0.8-2.6,1.4-3.8c1.1-2.4,2.6-4.5,4.3-6.2c0.4-0.4,0.9-0.8,1.4-1.2
		c0.5-0.4,1-0.7,1.5-1.1c0.5-0.3,1-0.6,1.5-0.9c0.3-0.1,0.5-0.3,0.8-0.4c0.1-0.1,0.3-0.1,0.4-0.2c0.1-0.1,0.3-0.1,0.4-0.2
		c0.5-0.2,1.1-0.4,1.7-0.6c0.1,0,0.3-0.1,0.4-0.1c0.1,0,0.3-0.1,0.4-0.1c0.3-0.1,0.6-0.2,0.9-0.2c0.1,0,0.3-0.1,0.4-0.1
		c0.1,0,0.3-0.1,0.4-0.1c0.1,0,0.3-0.1,0.4-0.1l0.2,0l0.2,0c0.1,0,0.3,0,0.4-0.1c0.2,0,0.3,0,0.5-0.1c0.1,0,0.4,0,0.5-0.1
		c0.1,0,0.2,0,0.3,0l0.2,0l0.1,0l0.1,0c0.2,0,0.3,0,0.5,0l0.3,0c0,0,0.1,0,0,0l0.1,0l0.1,0c0.1,0,0.3,0,0.4,0c0.6,0,1.1,0,1.7,0
		c1.1,0,2.2,0.2,3.3,0.4c2.2,0.4,4.2,1.1,6,2c1.8,0.9,3.5,2,4.9,3.2c0.1,0.1,0.2,0.2,0.3,0.2c0.1,0.1,0.2,0.2,0.3,0.2
		c0.2,0.2,0.3,0.3,0.5,0.5c0.2,0.2,0.3,0.3,0.5,0.5c0.2,0.2,0.3,0.3,0.5,0.5c0.6,0.6,1.2,1.3,1.7,2c1,1.3,1.8,2.6,2.5,3.9
		c0,0.1,0.1,0.2,0.1,0.2c0,0.1,0.1,0.2,0.1,0.2c0.1,0.2,0.2,0.3,0.2,0.5c0.1,0.2,0.1,0.3,0.2,0.4c0.1,0.1,0.1,0.3,0.2,0.4
		c0.2,0.6,0.5,1.1,0.6,1.7c0.3,0.8,0.5,1.6,0.7,2.3c0.1,0.3,0.3,0.4,0.6,0.4l0,0c0.3,0,0.5-0.3,0.5-0.5c0-0.7,0-1.6-0.1-2.5
		c-0.1-1.2-0.3-2.6-0.7-4.1c-0.4-1.5-1-3.2-1.8-4.9c-0.9-1.7-2-3.5-3.4-5.2c-0.6-0.7-1.2-1.3-1.8-2c1-4-1.2-7.4-1.2-7.4
		c-3.8-0.2-6.2,1.2-7.1,1.8c-0.1-0.1-0.3-0.1-0.5-0.2c-0.6-0.3-1.3-0.5-2-0.7c-0.7-0.2-1.4-0.4-2.1-0.6c-0.7-0.2-1.4-0.3-2.2-0.4
		c-0.1,0-0.3,0-0.4-0.1c-1.7-5.3-6.4-7.5-6.4-7.5C31,4.4,30,9.1,30,9.1c0,0.1,0.1,0.1,0.1,0.2c-0.4,0.1-0.7,0.2-1.1,0.3
		c-0.4,0.1-0.8,0.3-1.2,0.4c-0.4,0.2-0.8,0.3-1.2,0.5c-0.8,0.3-1.6,0.7-2.4,1.2c-0.8,0.4-1.5,0.9-2.3,1.4c0,0,0,0-0.1,0.1
		c0-0.1,0-0.2,0-0.2c-7.4-2.8-13.9,0.6-13.9,0.6c-0.6,7.8,2.9,12.8,3.6,13.7c-0.2,0.5-0.3,1-0.5,1.5c-0.5,1.8-1,3.6-1.2,5.5
		c0,0.3-0.1,0.5-0.1,0.8C3,38.4,1,45.3,1,45.3c5.7,6.5,12.3,6.9,12.3,6.9c0,0,0,0,0,0c0.8,1.5,1.8,2.9,2.9,4.3
		c0.5,0.6,0.9,1.1,1.4,1.6C15.6,64,17.9,69,17.9,69c6.3,0.2,10.5-2.8,11.3-3.5c0.6,0.2,1.3,0.4,1.9,0.6c1.9,0.5,3.9,0.8,5.9,0.9
		c0.5,0,1,0,1.5,0l0.2,0l0.2,0l0.3,0l0.3,0c0,0,0,0,0,0c3,4.2,8.2,4.8,8.2,4.8c4.2-4.4,3.9-8.8,3.9-8.8c0,0-0.1-0.1-0.1-0.1
		c0.8-0.6,1.6-1.2,2.3-1.9c1.5-1.4,2.8-2.9,3.9-4.5c0.1-0.2,0.2-0.3,0.3-0.5c4.2,0.2,7.2-2.6,7.2-2.6c-0.8-4.9-3.8-7-3.8-7
		c0,0-0.1,0-0.1,0c0-0.3,0.1-0.6,0.1-0.9c0-0.5,0-0.9,0-1.4l0-0.4l0-0.2l0-0.1c0-0.1,0-0.1,0-0.1l0-0.3l0-0.4c0-0.1,0-0.3,0-0.4
		c0-0.1,0-0.2,0-0.4l0-0.4l-0.1-0.4c-0.1-0.5-0.2-1-0.3-1.4c-0.4-1.9-1.2-3.7-2.2-5.3c-1-1.6-2.2-3-3.6-4.3C54,29,52.4,28,50.8,27.3
		c-1.6-0.7-3.3-1.2-5-1.4c-0.8-0.1-1.7-0.2-2.5-0.1l-0.3,0l-0.1,0c0,0-0.1,0-0.1,0l-0.1,0l-0.3,0c-0.1,0-0.2,0-0.3,0
		c-0.4,0-0.8,0.1-1.3,0.2c-1.7,0.3-3.2,0.9-4.6,1.7c-1.4,0.8-2.6,1.9-3.6,3c-1,1.2-1.7,2.5-2.3,3.8c-0.5,1.3-0.8,2.7-0.9,4.1
		c0,0.3,0,0.7,0,1c0,0.1,0,0.2,0,0.2l0,0.3c0,0.2,0,0.3,0,0.5c0.1,0.7,0.2,1.3,0.4,2c0.4,1.3,1,2.4,1.7,3.4c0.7,1,1.6,1.8,2.5,2.4
		c0.9,0.6,1.9,1.1,2.9,1.4c1,0.3,1.9,0.4,2.9,0.4c0.1,0,0.2,0,0.3,0c0.1,0,0.1,0,0.2,0c0.1,0,0.1,0,0.2,0c0.1,0,0.2,0,0.3,0
		c0,0,0.1,0,0.1,0l0.1,0c0.1,0,0.1,0,0.2,0c0.1,0,0.2,0,0.3-0.1c0.1,0,0.2,0,0.3-0.1c0.2,0,0.4-0.1,0.6-0.2c0.4-0.1,0.8-0.3,1.1-0.5
		c0.3-0.2,0.7-0.4,1-0.6c0.1-0.1,0.2-0.1,0.2-0.2C45,48.4,45.1,47.9,44.8,47.6L44.8,47.6z"/>
	<linearGradient id="SVGID_2_" gradientUnits="userSpaceOnUse" x1="33.5339" y1="86.6807" x2="33.5339" y2="21.5533">
		<stop  offset="0" style="stop-color:#FFF200"/>
		<stop  offset="1" style="stop-color:#F15A29"/>
	</linearGradient>
	<path class="st4" d="M44.8,47.6c-0.2-0.3-0.6-0.3-0.9-0.2c-0.1,0-0.2,0.1-0.2,0.1c-0.3,0.1-0.5,0.2-0.8,0.3
		c-0.3,0.1-0.6,0.2-0.9,0.2c-0.2,0-0.3,0-0.5,0.1c-0.1,0-0.2,0-0.2,0c-0.1,0-0.2,0-0.2,0c-0.1,0-0.2,0-0.2,0c-0.1,0-0.2,0-0.3,0
		c0,0-0.1,0,0,0l0,0l-0.1,0c0,0-0.1,0-0.1,0c-0.1,0-0.2,0-0.3,0c-0.7-0.1-1.4-0.3-2.1-0.6c-0.7-0.3-1.4-0.8-2-1.3
		c-0.6-0.5-1.1-1.2-1.5-1.9c-0.4-0.7-0.7-1.6-0.8-2.4c-0.1-0.4-0.1-0.9-0.1-1.3c0-0.1,0-0.2,0-0.4c0,0,0,0,0,0l0,0l0-0.1
		c0-0.1,0-0.1,0-0.2c0-0.2,0.1-0.5,0.1-0.7c0.3-1.9,1.3-3.7,2.7-5.1c0.4-0.3,0.8-0.7,1.2-1c0.4-0.3,0.9-0.5,1.3-0.8
		c0.5-0.2,0.9-0.4,1.4-0.5c0.5-0.1,1-0.2,1.5-0.3c0.3,0,0.5,0,0.8,0c0.1,0,0.1,0,0.2,0l0.2,0l0.1,0c0.1,0,0,0,0,0l0.1,0l0.2,0
		c0.6,0,1.1,0.1,1.7,0.2c1.1,0.2,2.2,0.6,3.2,1.2c2,1.1,3.7,2.8,4.7,4.9c0.5,1,0.9,2.1,1.1,3.3c0,0.3,0.1,0.6,0.1,0.9l0,0.2l0,0.2
		c0,0.1,0,0.1,0,0.2c0,0.1,0,0.2,0,0.2l0,0.2l0,0.2c0,0.1,0,0.4,0,0.5c0,0.3,0,0.6-0.1,1c0,0.3-0.1,0.6-0.1,0.9
		c-0.1,0.3-0.1,0.6-0.2,0.9c-0.2,0.6-0.4,1.2-0.6,1.8c-0.5,1.2-1.1,2.3-1.8,3.3c-1.5,2.1-3.6,3.7-5.9,4.8c-1.2,0.5-2.4,0.9-3.7,1.1
		c-0.6,0.1-1.3,0.2-1.9,0.2l-0.1,0l-0.1,0l-0.2,0l-0.3,0l-0.2,0c0.1,0,0,0,0,0l-0.1,0c-0.3,0-0.7,0-1-0.1c-1.4-0.1-2.7-0.3-4-0.7
		c-1.3-0.4-2.6-0.9-3.8-1.5c-2.4-1.3-4.6-3-6.2-5.2c-0.8-1.1-1.6-2.2-2.2-3.4c-0.6-1.2-1.1-2.5-1.4-3.7c-0.4-1.3-0.6-2.6-0.7-3.9
		l0-0.2l0-0.1l0-0.1l0-0.1l0-0.2l0-0.1l0-0.1l0-0.2l0-0.3l0-0.1c0,0,0,0,0,0l0-0.1c0-0.2,0-0.3,0-0.5c0-0.7,0.1-1.3,0.2-2
		c0.1-0.7,0.2-1.3,0.3-2c0.1-0.7,0.3-1.3,0.5-2c0.4-1.3,0.8-2.6,1.4-3.8c1.1-2.4,2.6-4.5,4.3-6.2c0.4-0.4,0.9-0.8,1.4-1.2
		c0.5-0.4,1-0.7,1.5-1.1c0.5-0.3,1-0.6,1.5-0.9c0.3-0.1,0.5-0.3,0.8-0.4c0.1-0.1,0.3-0.1,0.4-0.2c0.1-0.1,0.3-0.1,0.4-0.2
		c0.5-0.2,1.1-0.4,1.7-0.6c0.1,0,0.3-0.1,0.4-0.1c0.1,0,0.3-0.1,0.4-0.1c0.3-0.1,0.6-0.2,0.9-0.2c0.1,0,0.3-0.1,0.4-0.1
		c0.1,0,0.3-0.1,0.4-0.1c0.1,0,0.3-0.1,0.4-0.1l0.2,0l0.2,0c0.1,0,0.3,0,0.4-0.1c0.2,0,0.3,0,0.5-0.1c0.1,0,0.4,0,0.5-0.1
		c0.1,0,0.2,0,0.3,0l0.2,0l0.1,0l0.1,0c0.2,0,0.3,0,0.5,0l0.3,0c0,0,0.1,0,0,0l0.1,0l0.1,0c0.1,0,0.3,0,0.4,0c0.6,0,1.1,0,1.7,0
		c1.1,0,2.2,0.2,3.3,0.4c2.2,0.4,4.2,1.1,6,2c1.8,0.9,3.5,2,4.9,3.2c0.1,0.1,0.2,0.2,0.3,0.2c0.1,0.1,0.2,0.2,0.3,0.2
		c0.2,0.2,0.3,0.3,0.5,0.5c0.2,0.2,0.3,0.3,0.5,0.5c0.2,0.2,0.3,0.3,0.5,0.5c0.6,0.6,1.2,1.3,1.7,2c1,1.3,1.8,2.6,2.5,3.9
		c0,0.1,0.1,0.2,0.1,0.2c0,0.1,0.1,0.2,0.1,0.2c0.1,0.2,0.2,0.3,0.2,0.5c0.1,0.2,0.1,0.3,0.2,0.4c0.1,0.1,0.1,0.3,0.2,0.4
		c0.2,0.6,0.5,1.1,0.6,1.7c0.3,0.8,0.5,1.6,0.7,2.3c0.1,0.3,0.3,0.4,0.6,0.4l0,0c0.3,0,0.5-0.3,0.5-0.5c0-0.7,0-1.6-0.1-2.5
		c-0.1-1.2-0.3-2.6-0.7-4.1c-0.4-1.5-1-3.2-1.8-4.9c-0.9-1.7-2-3.5-3.4-5.2c-0.6-0.7-1.2-1.3-1.8-2c1-4-1.2-7.4-1.2-7.4
		c-3.8-0.2-6.2,1.2-7.1,1.8c-0.1-0.1-0.3-0.1-0.5-0.2c-0.6-0.3-1.3-0.5-2-0.7c-0.7-0.2-1.4-0.4-2.1-0.6c-0.7-0.2-1.4-0.3-2.2-0.4
		c-0.1,0-0.3,0-0.4-0.1c-1.7-5.3-6.4-7.5-6.4-7.5C31,4.4,30,9.2,30,9.2c0,0.1,0.1,0.1,0.1,0.2c-0.4,0.1-0.7,0.2-1.1,0.3
		c-0.4,0.1-0.8,0.3-1.2,0.4c-0.4,0.2-0.8,0.3-1.2,0.5c-0.8,0.3-1.6,0.7-2.4,1.2c-0.8,0.4-1.5,0.9-2.3,1.4c0,0,0,0-0.1,0.1
		c0-0.1,0-0.2,0-0.2c-7.4-2.8-13.9,0.6-13.9,0.6c-0.6,7.8,2.9,12.8,3.6,13.7c-0.2,0.5-0.3,1-0.5,1.5c-0.5,1.8-1,3.6-1.2,5.5
		c0,0.3-0.1,0.5-0.1,0.8C3,38.4,1,45.3,1,45.3c5.7,6.5,12.3,6.9,12.3,6.9c0,0,0,0,0,0c0.8,1.5,1.8,2.9,2.9,4.3
		c0.5,0.6,0.9,1.1,1.4,1.6C15.6,64,17.9,69,17.9,69c6.3,0.2,10.5-2.8,11.3-3.5c0.6,0.2,1.3,0.4,1.9,0.6c1.9,0.5,3.9,0.8,5.9,0.9
		c0.5,0,1,0,1.5,0l0.2,0l0.2,0l0.3,0l0.3,0c0,0,0,0,0,0c3,4.2,8.2,4.8,8.2,4.8c4.2-4.4,3.9-8.8,3.9-8.8c0,0-0.1-0.1-0.1-0.1
		c0.8-0.6,1.6-1.2,2.3-1.9c1.5-1.4,2.8-2.9,3.9-4.5c0.1-0.2,0.2-0.3,0.3-0.5c4.2,0.2,7.2-2.6,7.2-2.6c-0.8-4.9-3.8-7-3.8-7
		c0,0-0.1,0-0.1,0c0-0.3,0.1-0.6,0.1-0.9c0-0.5,0-0.9,0-1.4l0-0.4l0-0.2l0-0.1c0-0.1,0-0.1,0-0.1l0-0.3l0-0.4c0-0.1,0-0.3,0-0.4
		c0-0.1,0-0.2,0-0.4l0-0.4l-0.1-0.4c-0.1-0.5-0.2-1-0.3-1.4c-0.4-1.9-1.2-3.7-2.2-5.3c-1-1.6-2.2-3-3.6-4.3C54,29,52.4,28,50.8,27.3
		c-1.6-0.7-3.3-1.2-5-1.4c-0.8-0.1-1.7-0.2-2.5-0.1l-0.3,0l-0.1,0c0,0-0.1,0-0.1,0l-0.1,0l-0.3,0c-0.1,0-0.2,0-0.3,0
		c-0.4,0-0.8,0.1-1.3,0.2c-1.7,0.3-3.2,0.9-4.6,1.7c-1.4,0.8-2.6,1.9-3.6,3c-1,1.2-1.7,2.5-2.3,3.8c-0.5,1.3-0.8,2.7-0.9,4.1
		c0,0.3,0,0.7,0,1c0,0.1,0,0.2,0,0.2l0,0.3c0,0.2,0,0.3,0,0.5c0.1,0.7,0.2,1.3,0.4,2c0.4,1.3,1,2.4,1.7,3.4c0.7,1,1.6,1.8,2.5,2.4
		c0.9,0.6,1.9,1.1,2.9,1.4c1,0.3,1.9,0.4,2.9,0.4c0.1,0,0.2,0,0.3,0c0.1,0,0.1,0,0.2,0c0.1,0,0.1,0,0.2,0c0.1,0,0.2,0,0.3,0
		c0,0,0.1,0,0.1,0l0.1,0c0.1,0,0.1,0,0.2,0c0.1,0,0.2,0,0.3-0.1c0.1,0,0.2,0,0.3-0.1c0.2,0,0.4-0.1,0.6-0.2c0.4-0.1,0.8-0.3,1.1-0.5
		c0.3-0.2,0.7-0.4,1-0.6c0.1-0.1,0.2-0.1,0.2-0.2C45,48.4,45.1,48,44.8,47.6L44.8,47.6z"/>
	<path class="st5" d="M119.7,39c-0.5,12.4-10.2,22-22.3,22C84.5,61,75,50.6,75,38.1c0-12.6,10.3-23,22.8-23c5.7,0,11.2,2.4,15.9,6.8
		l-3.7,4.5c-3.6-3.1-7.9-5.2-12.2-5.2c-9.2,0-16.7,7.6-16.7,16.9c0,9.4,7.1,16.7,16.2,16.7c8.2,0,14.6-6,15.8-13.6H94.7v-5.4h25V39z
		"/>
	<path class="st5" d="M140.9,36h-3.4c-3.8,0-6.8,2.4-6.8,6.3v18.3h-6.1V30.1h5v2.6c1.6-1.6,4.3-2.6,7.2-2.6h6.6L140.9,36z"/>
	<path class="st5" d="M174.1,60.6h-5.2v-3.8c-2.7,2.6-6.4,4.3-10.5,4.3c-8.7,0-15.7-7.1-15.7-15.8c0-8.6,7-15.7,15.7-15.7
		c4.1,0,7.7,1.6,10.4,4.3v-3.8h5.2V60.6z M168.1,45.3c0-5.2-4.3-9.6-9.6-9.6c-5.3,0-9.6,4.3-9.6,9.6c0,5.4,4.3,9.6,9.6,9.6
		C163.9,54.9,168.1,50.7,168.1,45.3z"/>
	<path class="st5" d="M186.4,28.4v1.7h9.7v5.4h-9.7v25.1h-6v-32c0-6.7,4.8-10.7,10.8-10.7h7.3l-2.4,5.7h-4.9
		C188.5,23.7,186.4,25.8,186.4,28.4z"/>
	<path class="st5" d="M228.3,60.6h-5.2v-3.8c-2.7,2.6-6.4,4.3-10.5,4.3C204,61.1,197,54,197,45.3c0-8.6,7-15.7,15.7-15.7
		c4.1,0,7.7,1.6,10.4,4.3v-3.8h5.2V60.6z M222.4,45.3c0-5.2-4.3-9.6-9.6-9.6c-5.3,0-9.6,4.3-9.6,9.6c0,5.4,4.3,9.6,9.6,9.6
		C218.1,54.9,222.4,50.7,222.4,45.3z"/>
	<path class="st5" d="M260.9,42.6v18h-6.1v-18c0-3.8-3.1-6.8-6.8-6.8c-3.8,0-6.9,3-6.9,6.8v18H235V30.1h5.1v2.6
		c2.2-1.9,5.1-3.1,8.2-3.1C255.3,29.7,260.9,35.4,260.9,42.6z"/>
	<path class="st5" d="M296.7,60.6h-5.2v-3.8c-2.7,2.6-6.4,4.3-10.5,4.3c-8.7,0-15.7-7.1-15.7-15.8c0-8.6,7-15.7,15.7-15.7
		c4.1,0,7.7,1.6,10.4,4.3v-3.8h5.2V60.6z M290.7,45.3c0-5.2-4.3-9.6-9.6-9.6c-5.3,0-9.6,4.3-9.6,9.6c0,5.4,4.3,9.6,9.6,9.6
		C286.4,54.9,290.7,50.7,290.7,45.3z"/>
</g>
</svg>
